<mxfile host="app.diagrams.net" modified="2023-04-11T06:20:24.048Z" agent="Mozilla/5.0 (Windows NT 10.0; Win64; x64) AppleWebKit/537.36 (KHTML, like Gecko) Chrome/111.0.0.0 Safari/537.36" etag="LRNOr27Sz51hoO_Jklt-" version="21.1.5" type="github">
  <diagram name="Page-1" id="197159a0-c6a4-9194-75a8-e4174976684c">
    <mxGraphModel dx="1908" dy="1104" grid="1" gridSize="10" guides="1" tooltips="1" connect="1" arrows="1" fold="1" page="1" pageScale="1.5" pageWidth="1169" pageHeight="826" background="none" math="0" shadow="0">
      <root>
        <mxCell id="0" style=";html=1;" />
        <mxCell id="1" style=";html=1;" parent="0" />
        <mxCell id="1257a543d1cacc4b-52" value="网络架构图" style="text;strokeColor=none;fillColor=none;html=1;fontSize=24;fontStyle=1;verticalAlign=middle;align=center;" parent="1" vertex="1">
          <mxGeometry x="160" y="60" width="1420" height="40" as="geometry" />
        </mxCell>
        <mxCell id="28SMEQxceJZkX-4wOSHQ-2" value="" style="image;sketch=0;aspect=fixed;html=1;points=[];align=center;fontSize=12;image=img/lib/mscae/Web_App_Firewall.svg;" vertex="1" parent="1">
          <mxGeometry x="791.13" y="400" width="160" height="160" as="geometry" />
        </mxCell>
        <mxCell id="28SMEQxceJZkX-4wOSHQ-3" value="" style="image;aspect=fixed;perimeter=ellipsePerimeter;html=1;align=center;shadow=0;dashed=0;spacingTop=3;image=img/lib/active_directory/internet_cloud.svg;" vertex="1" parent="1">
          <mxGeometry x="785.25" y="190" width="171.75" height="108.2" as="geometry" />
        </mxCell>
      </root>
    </mxGraphModel>
  </diagram>
</mxfile>
